# xmcd
#
# Track frame offsets: 
#        150
#        15045
#        29702
#        44455
#        66550
#        87740
#        107050
#        125392
#        142597
#        161250
#        174685
#        189110
#        199895
#        217052
#        231042
#        248137
#
# Disc length: 3402 seconds
#
# Revision: 0
# Processed by: cddbd v1.5.2PL0 Copyright (c) Steve Scherf et al.
# Submitted via: ExactAudioCopy v1.0b2
#
DISCID=db0d4810
DTITLE=Margie Anne - Livin' N' Lovin In Alaska
DYEAR=1999
DGENRE=Country
TTITLE0=The Catch Of The Day
TTITLE1=If...
TTITLE2=Never Let Go!
TTITLE3=Are There Strings Attached?
TTITLE4=The Rainbow
TTITLE5=Gifts From Above
TTITLE6=Something's Really Missing From My World Tonight
TTITLE7=Waiting For You
TTITLE8=Are You Lonely Tonight
TTITLE9=So...Tell Me Why!
TTITLE10=Hello Winter!
TTITLE11=Alaska's Summer Day Song
TTITLE12=I Never Knew
TTITLE13=Half A Moon
TTITLE14=The Hands Of Jesus
TTITLE15=The Alaska Flag Song
EXTD=
EXTT0=
EXTT1=
EXTT2=
EXTT3=
EXTT4=
EXTT5=
EXTT6=
EXTT7=
EXTT8=
EXTT9=
EXTT10=
EXTT11=
EXTT12=
EXTT13=
EXTT14=
EXTT15=
PLAYORDER=
